# xmcd
#
# Track frame offsets:
#	150
#	13858
#	30600
#	43459
#	63743
#	69553
#	85280
#
# Disc length: 1360 seconds
#
# Revision: 4
# Processed by: cddbd v1.5.2PL0 Copyright (c) Steve Scherf et al.
# Submitted via: audiograbber 1.83.01
#
DISCID=63054e07
DTITLE=Calexico - The Thread That Keeps Us [Bonus CD]
DYEAR=2018
DGENRE=Americana
TTITLE0=Longboard [instrumental]
TTITLE1=Luna Roja [Instrumental]
TTITLE2=Curse Of The Ride
TTITLE3=Lost Inside
TTITLE4=Inside The Energy Field [instrumental]
TTITLE5=End Of The Night
TTITLE6=Dream On Mount Tam
EXTD=
EXTT0=
EXTT1=
EXTT2=
EXTT3=
EXTT4=
EXTT5=
EXTT6=
PLAYORDER=
